<svg xmlns="http://www.w3.org/2000/svg" viewBox="0 0 344.71 512"><defs><style>.cls-1{fill:#200706;}.cls-2{fill:#fff;}</style></defs><title>pin</title><g id="レイヤー_2" data-name="レイヤー 2"><g id="_2" data-name="2"><path class="cls-1" d="M172.36,0A172.34,172.34,0,0,0,0,172.36c0,97.16,48.16,117.86,101.39,182.49,63.66,77.31,71,157.15,71,157.15s7.3-79.84,71-157.15c53.22-64.63,101.38-85.33,101.38-182.49A172.33,172.33,0,0,0,172.36,0Z"/><path class="cls-2" d="M106.16,189.25H64.38V131.76a2.27,2.27,0,0,0-2.27-2.29H46.63a2.09,2.09,0,0,0-2,2.14.76.76,0,0,0,0,.15V204a2.28,2.28,0,0,0,2.27,2.29h59.28a2.28,2.28,0,0,0,2.27-2.29V191.29a2.09,2.09,0,0,0-2.12-2Zm66.31-48.31H157.24a2.28,2.28,0,0,0-2.27,2.29h0V204a2.28,2.28,0,0,0,2.27,2.29h15.23a2.27,2.27,0,0,0,2.27-2.29h0V143.23a2.27,2.27,0,0,0-2.27-2.29ZM267,145a32.49,32.49,0,0,1,20.87,7.94,2.12,2.12,0,0,0,1.44.55,1.47,1.47,0,0,0,1.44-.53l8.83-10.83a2.46,2.46,0,0,0,.53-1.79,2.43,2.43,0,0,0-.85-1.65A51.83,51.83,0,0,0,267,127.44a47.44,47.44,0,0,0-31.78,11.48,38.38,38.38,0,0,0-13.06,29,39,39,0,0,0,12.79,29,45.76,45.76,0,0,0,31.15,11.61,59.45,59.45,0,0,0,32.47-10.19,2.42,2.42,0,0,0,1-2V173.81a1.93,1.93,0,0,0-1.69-2.14H283.62c-1.24,0-1.76,1.07-1.76,2.39V187a34.65,34.65,0,0,1-14.76,3.84c-14,0-25-10.09-25-23S253,145,267,145Z"/></g></g></svg>